<?xml version="1.0" encoding="utf-8"?>
<!-- Generator: Adobe Illustrator 21.0.2, SVG Export Plug-In . SVG Version: 6.00 Build 0)  -->
<svg version="1.1" id="Layer_1" xmlns="http://www.w3.org/2000/svg" xmlns:xlink="http://www.w3.org/1999/xlink" x="0px" y="0px"
	 viewBox="0 0 16 16" style="enable-background:new 0 0 16 16;" xml:space="preserve">
<style type="text/css">
	.st0{fill:#326DE6;}
	.st1{fill:#FFFFFF;}
</style>
<g>
	<path class="st0" d="M5.4,14.9c-0.3,0-0.7-0.2-0.9-0.4l-3.3-4.1C1,10.1,0.9,9.7,1,9.4l1.2-5.1C2.3,4,2.5,3.7,2.8,3.5l4.8-2.3
		C7.7,1.1,7.9,1.1,8,1.1c0.2,0,0.3,0,0.5,0.1l4.8,2.3c0.3,0.2,0.5,0.4,0.6,0.8l1.2,5.1c0.1,0.3,0,0.7-0.2,1l-3.3,4.1
		c-0.2,0.3-0.5,0.4-0.9,0.4H5.4L5.4,14.9z"/>
	<path class="st1" d="M8,1.3c0.1,0,0.3,0,0.4,0.1l4.8,2.3c0.2,0.1,0.4,0.3,0.5,0.6l1.2,5.1c0.1,0.3,0,0.6-0.2,0.8l-3.3,4.1
		c-0.2,0.2-0.4,0.3-0.7,0.3H5.4c-0.3,0-0.5-0.1-0.7-0.3l-3.3-4.1C1.2,10,1.1,9.7,1.2,9.4l1.2-5.1c0-0.3,0.2-0.5,0.4-0.6l4.8-2.3
		C7.7,1.4,7.9,1.3,8,1.3L8,1.3z M8,0.9L8,0.9c-0.2,0-0.4,0-0.6,0.1L2.7,3.3C2.3,3.5,2,3.8,1.9,4.2L0.7,9.3c-0.1,0.4,0,0.8,0.3,1.2
		l3.3,4.1c0.3,0.3,0.6,0.5,1,0.5h5.3c0.4,0,0.8-0.2,1-0.5l3.3-4.1c0.3-0.3,0.4-0.7,0.3-1.2L14,4.2c-0.1-0.4-0.4-0.7-0.7-0.9L8.6,1
		C8.4,0.9,8.2,0.9,8,0.9L8,0.9L8,0.9z"/>
	<path class="st1" d="M12.8,9L12.8,9L12.8,9L12.8,9L12.8,9L12.8,9C12.8,9,12.7,9,12.8,9c-0.2,0-0.2,0-0.3,0h-0.1l0,0
		c-0.2,0-0.4,0-0.5-0.1c-0.1,0-0.1-0.1-0.1-0.1l0,0l0,0h-0.1c0.1-0.4,0-0.9-0.1-1.3s-0.3-0.9-0.5-1.2l0.1-0.1l0,0V6.1
		c0.1-0.1,0.3-0.2,0.4-0.3l0,0h0.1c0.1,0,0.1-0.1,0.2-0.1l0,0l0,0l0,0C12.1,5.3,12.1,5.1,12,5c0-0.1-0.1-0.1-0.2-0.1
		c-0.1,0-0.1,0-0.2,0.1l0,0l0,0l0,0l0,0l-0.1,0.1c0,0,0,0-0.1,0.1l0,0c-0.1,0.1-0.3,0.3-0.4,0.3h-0.1c0,0,0,0-0.1,0l0,0l0,0
		l-0.1,0.1c-0.1-0.1-0.3-0.2-0.4-0.4C9.7,4.8,9,4.5,8.3,4.4V4.3l0,0L8.2,4.2c0-0.2,0-0.3,0-0.5l0,0V3.6c0-0.1,0-0.1,0-0.2v0l0,0l0,0
		l0,0c0-0.2-0.1-0.3-0.3-0.3c-0.1,0-0.2,0-0.2,0.1s0,0.1,0,0.2l0,0l0,0l0,0v0.1c0,0.1,0,0.1,0,0.2v0.1l0,0c0,0.2,0,0.4,0,0.5
		c0,0.1,0,0.1-0.1,0.1l0,0l0,0v0.1c-0.2,0-0.3,0-0.5,0.1c-0.6,0.2-1.3,0.5-1.8,1H5.2l0,0c0,0,0,0-0.1,0H5C4.9,5.5,4.8,5.4,4.7,5.2
		l0,0c0,0,0,0-0.1-0.1L4.5,5l0,0l0,0l0,0C4.4,5,4.4,4.9,4.3,4.9C4.1,4.9,4.1,4.9,4,5S3.9,5.3,4.1,5.4l0,0l0,0l0,0l0,0
		c0.1,0,0.1,0.1,0.2,0.1h0.1l0,0c0.2,0.1,0.3,0.2,0.4,0.3v0.1l0,0l0,0L5,6.1c0,0,0,0,0,0.1C4.4,7,4.3,7.8,4.4,8.7H4.3l0,0
		c0,0,0,0.1-0.1,0.1C4,8.9,3.8,8.9,3.6,9l0,0H3.5H3.4c0,0,0,0-0.1,0l0,0l0,0l0,0C3.1,9,3,9.2,3,9.3s0.2,0.2,0.3,0.2c0,0,0,0,0.1,0
		l0,0l0,0l0,0c0,0,0,0,0.1,0s0.1,0,0.2-0.1h0.1l0,0C4,9.3,4.1,9.3,4.3,9.3l0,0c0.1,0,0.1,0,0.1,0l0,0l0,0h0.1
		c0.2,0.7,0.7,1.3,1.2,1.8c0.1,0.1,0.3,0.2,0.4,0.3L6,11.5l0,0c0,0,0,0.1,0,0.2c0.1,0.1,0,0.3-0.1,0.4l0,0c0,0,0,0-0.1,0.1
		c0,0-0.1,0.1-0.1,0.2l0,0l0,0l0,0l0,0c-0.1,0.2,0,0.3,0.1,0.4h0.1c0.1,0,0.2-0.1,0.3-0.2l0,0l0,0l0,0l0,0c0-0.1,0-0.1,0.1-0.2v-0.1
		l0,0c0.1-0.2,0.1-0.3,0.2-0.5c0-0.1,0.1-0.1,0.1-0.1l0,0l0,0l0.1-0.1c0.4,0.2,0.9,0.2,1.3,0.2c0.3,0,0.6,0,0.8-0.1
		c0.2,0,0.3-0.1,0.5-0.1l0.1,0.1l0,0c0,0,0.1,0,0.1,0.1c0.1,0.1,0.1,0.3,0.2,0.5l0,0v0.1c0,0.1,0,0.1,0.1,0.2l0,0l0,0l0,0l0,0
		c0.1,0.1,0.2,0.2,0.3,0.2h0.1c0.1,0,0.1-0.1,0.1-0.2s0-0.2,0-0.2l0,0l0,0l0,0l0,0c0-0.1-0.1-0.1-0.1-0.2c0,0,0,0-0.1-0.1l0,0
		c0-0.1-0.1-0.3-0.1-0.4s0-0.1,0-0.2l0,0l0,0v-0.1c0.5-0.3,0.9-0.7,1.2-1.2c0.2-0.3,0.3-0.6,0.4-0.8h0.1l0,0h0.1l0,0
		c0.2,0,0.3,0.1,0.5,0.1l0,0h0.1c0.1,0,0.1,0,0.2,0.1c0,0,0,0,0.1,0l0,0l0,0c0,0,0,0,0.1,0s0.3-0.1,0.3-0.2C13.1,9.2,13,9.1,12.8,9
		L12.8,9z M8.4,8.6L8,8.8L7.6,8.6L7.5,8.1l0.3-0.4h0.5l0.3,0.4L8.4,8.6L8.4,8.6z M10.9,7.6C11,7.9,11,8.2,11,8.5L9.5,8.1
		C9.4,8.1,9.3,8,9.3,7.8c0,0,0-0.1,0.1-0.1l1.1-1C10.7,7,10.8,7.3,10.9,7.6L10.9,7.6z M10.1,6.1L8.8,7C8.7,7.1,8.6,7,8.5,6.9V6.8
		L8.4,5.3C9,5.4,9.6,5.7,10.1,6.1L10.1,6.1z M7.3,5.3c0.1,0,0.2,0,0.3-0.1l0,1.6C7.6,6.9,7.4,7,7.3,7H7.2L5.9,6.1
		C6.3,5.7,6.8,5.5,7.3,5.3L7.3,5.3z M5.5,6.7l1.1,1c0.1,0.1,0.1,0.2,0,0.3L6.5,8.1L5.1,8.5C5,7.9,5.1,7.2,5.5,6.7L5.5,6.7z M5.2,9.2
		L6.7,9C6.9,9,7,9.1,7,9.2c0,0.1,0,0.1,0,0.2l0,0l-0.6,1.4C5.9,10.4,5.5,9.9,5.2,9.2L5.2,9.2z M8.7,11.1c-0.2,0-0.4,0.1-0.7,0.1
		S7.3,11.1,7,11l0.7-1.3C7.9,9.6,8,9.6,8.1,9.6l0.1,0.1l0,0L8.9,11C8.9,11.1,8.8,11.1,8.7,11.1L8.7,11.1z M10.5,9.8
		c-0.2,0.4-0.5,0.7-0.9,0.9L9,9.3C9,9.2,9,9.1,9.1,9h0.1l1.5,0.3C10.7,9.4,10.6,9.6,10.5,9.8L10.5,9.8z"/>
</g>
</svg>
